<svg width="14" height="16" viewBox="0 0 14 16" fill="none" xmlns="http://www.w3.org/2000/svg">
<path d="M12.8271 4.10229C10.6711 3.88863 8.50211 3.77856 6.3396 3.77856C5.05763 3.77856 3.77566 3.84331 2.4937 3.9728L1.17288 4.10229" stroke="#FF4739" stroke-width="1.5" stroke-linecap="round" stroke-linejoin="round"/>
<path d="M4.73389 3.44837L4.87633 2.6002C4.97992 1.98512 5.05762 1.52542 6.15182 1.52542H7.84816C8.94236 1.52542 9.02653 2.01101 9.12365 2.60668L9.26609 3.44837" stroke="#FF4739" stroke-width="1.5" stroke-linecap="round" stroke-linejoin="round"/>
<path d="M11.4351 6.14828L11.0142 12.6682C10.943 13.6847 10.8847 14.4746 9.07831 14.4746H4.92163C3.11522 14.4746 3.05695 13.6847 2.98573 12.6682L2.56488 6.14828" stroke="#FF4739" stroke-width="1.5" stroke-linecap="round" stroke-linejoin="round"/>
<path d="M5.91876 10.9136H8.0748" stroke="#FF4739" stroke-width="1.5" stroke-linecap="round" stroke-linejoin="round"/>
<path d="M5.38135 8.32373H8.61864" stroke="#FF4739" stroke-width="1.5" stroke-linecap="round" stroke-linejoin="round"/>
</svg>
