<svg width="15" height="16" viewBox="0 0 15 16" fill="none" xmlns="http://www.w3.org/2000/svg">
<path fill-rule="evenodd" clip-rule="evenodd" d="M13.3782 2.19565C12.4484 1.26589 11.4938 0.833616 10.5162 0.929569C9.57806 1.02166 8.81044 1.58606 8.20084 2.19565L7.2689 3.12759C7.26264 3.13364 7.25648 3.1398 7.25044 3.14605L1.63417 8.76232C1.43549 8.961 1.26763 9.22001 1.14439 9.46521C1.02144 9.70982 0.911923 10.0023 0.871887 10.2877L0.8717 10.289L0.514123 12.7921L0.513893 12.7936C0.418103 13.4491 0.596893 14.0823 1.04463 14.5282C1.49131 14.9731 2.12383 15.1503 2.77508 15.0606L2.77509 15.0607L2.7789 15.0601L5.28724 14.7018C5.5693 14.6615 5.8598 14.5513 6.10236 14.4294C6.34659 14.3067 6.60337 14.1412 6.80274 13.9483L6.80281 13.9483L6.8115 13.9396L12.4262 8.32491C12.4335 8.31789 12.4407 8.31072 12.4478 8.30339L13.3782 7.37298C13.9878 6.76338 14.5522 5.99576 14.6442 5.05758C14.7402 4.08007 14.3079 3.12542 13.3782 2.19565ZM11.7014 6.92846L12.3175 6.31232C12.8412 5.78858 13.1102 5.3312 13.1514 4.91105C13.1888 4.53023 13.0544 3.99321 12.3175 3.25631C11.5806 2.51941 11.0436 2.38501 10.6628 2.42239C10.2426 2.46364 9.78524 2.73257 9.2615 3.25631L8.64455 3.87327C9.16892 5.28253 10.2839 6.39824 11.7014 6.92846ZM7.50437 5.01344L2.69483 9.82298C2.64352 9.87429 2.56138 9.98612 2.48462 10.1388C2.40776 10.2918 2.36743 10.4238 2.35731 10.4963L2.35697 10.4987L1.99863 13.007L1.99822 13.0099C1.96119 13.2622 2.03664 13.3992 2.10313 13.4654C2.17089 13.5329 2.31292 13.6097 2.569 13.5749L2.57059 13.5747L5.0751 13.2169C5.14304 13.2071 5.27338 13.1673 5.42873 13.0892C5.57952 13.0134 5.69615 12.9306 5.7562 12.8736L10.5616 8.0682C9.23245 7.41417 8.15641 6.33954 7.50437 5.01344Z" fill="#3066CF"/>
</svg>
