<svg width="18" height="18" viewBox="0 0 18 18" fill="none" xmlns="http://www.w3.org/2000/svg">
<path d="M15.7952 8.63878L15.6752 8.478C15.4652 8.22951 15.2177 8.03219 14.9327 7.88602C14.5502 7.67408 14.1152 7.56445 13.6652 7.56445H4.32765C3.87765 7.56445 3.45015 7.67408 3.06015 7.88602C2.76765 8.0395 2.50515 8.25144 2.28765 8.51454C1.86015 9.04805 1.65765 9.7058 1.72515 10.3635L2.00265 13.7765C2.10015 14.807 2.22765 16.0787 4.60515 16.0787H13.3952C15.7727 16.0787 15.8927 14.807 15.9977 13.7692L16.2752 10.3709C16.3427 9.75696 16.1777 9.14306 15.7952 8.63878ZM10.7927 12.673H7.20016C6.90766 12.673 6.67516 12.4391 6.67516 12.1614C6.67516 11.8837 6.90766 11.6498 7.20016 11.6498H10.7927C11.0852 11.6498 11.3177 11.8837 11.3177 12.1614C11.3177 12.4464 11.0852 12.673 10.7927 12.673Z" fill="white"/>
<path d="M15.3943 6.06028C15.4471 6.43902 15.0333 6.69844 14.6636 6.60067C14.3455 6.51655 14.0144 6.47449 13.6724 6.47449H4.32741C3.97974 6.47449 3.63653 6.52014 3.30995 6.60788C2.94509 6.7059 2.53491 6.45603 2.53491 6.07824V4.86665C2.53491 2.25755 3.35241 1.46094 6.02991 1.46094H6.91491C7.98741 1.46094 8.32491 1.79712 8.75991 2.34525L9.6599 3.51459C9.8474 3.76308 9.8549 3.7777 10.1849 3.7777H11.9699C14.2201 3.7777 15.1544 4.34148 15.3943 6.06028Z" fill="white"/>
</svg>
