<svg width="50" height="50" viewBox="0 0 50 50" fill="none" xmlns="http://www.w3.org/2000/svg">
<path d="M43.6874 16.6668H37.5624C34.9166 16.6668 33.3333 15.0835 33.3333 12.4377V6.31266C33.3333 3.66683 34.9166 2.0835 37.5624 2.0835H43.6874C46.3332 2.0835 47.9166 3.66683 47.9166 6.31266V12.4377C47.9166 15.0835 46.3332 16.6668 43.6874 16.6668ZM44.1457 9.771C43.8957 9.521 43.5624 9.396 43.2291 9.396C42.8957 9.396 42.5624 9.521 42.3124 9.771L41.9374 10.146V5.47933C41.9374 4.75016 41.3541 4.16683 40.6249 4.16683C39.8957 4.16683 39.3124 4.75016 39.3124 5.47933V10.146L38.9374 9.771C38.4374 9.271 37.6041 9.271 37.1041 9.771C36.6041 10.271 36.6041 11.1043 37.1041 11.6043L39.7082 14.2085C39.8124 14.3127 39.9582 14.396 40.1041 14.4585C40.1457 14.4793 40.1874 14.4793 40.2291 14.5002C40.3332 14.5418 40.4374 14.5627 40.5624 14.5627C40.6041 14.5627 40.6458 14.5627 40.6874 14.5627C40.8333 14.5627 40.9582 14.5418 41.1041 14.4793C41.1249 14.4793 41.1249 14.4793 41.1457 14.4793C41.2916 14.4168 41.4166 14.3335 41.5207 14.2293C41.5416 14.2085 41.5416 14.2085 41.5624 14.2085L44.1666 11.6043C44.6666 11.1043 44.6666 10.271 44.1457 9.771Z" fill="#3066CF"/>
<path d="M18.7501 21.6252C21.4885 21.6252 23.7084 19.4052 23.7084 16.6668C23.7084 13.9284 21.4885 11.7085 18.7501 11.7085C16.0117 11.7085 13.7917 13.9284 13.7917 16.6668C13.7917 19.4052 16.0117 21.6252 18.7501 21.6252Z" fill="#3066CF"/>
<path d="M43.6876 16.6665H42.7084V26.2707L42.4376 26.0415C40.8126 24.6457 38.1876 24.6457 36.5626 26.0415L27.8959 33.479C26.2709 34.8748 23.6459 34.8748 22.0209 33.479L21.3126 32.8957C19.8334 31.604 17.4792 31.479 15.8126 32.604L8.02091 37.8332C7.56258 36.6665 7.29175 35.3123 7.29175 33.729V16.2707C7.29175 10.3957 10.3959 7.2915 16.2709 7.2915H33.3334V6.31234C33.3334 5.479 33.4792 4.77067 33.8126 4.1665H16.2709C8.68758 4.1665 4.16675 8.68734 4.16675 16.2707V33.729C4.16675 35.9998 4.56258 37.979 5.33341 39.6457C7.12508 43.604 10.9584 45.8332 16.2709 45.8332H33.7293C41.3126 45.8332 45.8334 41.3123 45.8334 33.729V16.1873C45.2293 16.5207 44.5209 16.6665 43.6876 16.6665Z" fill="#3066CF"/>
<rect x="0.5" y="0.5" width="49" height="49" stroke="#E1E5E6"/>
</svg>
