<svg width="14" height="14" viewBox="0 0 14 14" fill="none" xmlns="http://www.w3.org/2000/svg">
<path fill-rule="evenodd" clip-rule="evenodd" d="M13.4 6.99998C13.4 8.69736 12.7257 10.3252 11.5255 11.5255C10.3252 12.7257 8.69736 13.4 6.99998 13.4C5.30259 13.4 3.67472 12.7257 2.47449 11.5255C1.27426 10.3252 0.599976 8.69736 0.599976 6.99998C0.599976 5.30259 1.27426 3.67472 2.47449 2.47449C3.67472 1.27426 5.30259 0.599976 6.99998 0.599976C8.69736 0.599976 10.3252 1.27426 11.5255 2.47449C12.7257 3.67472 13.4 5.30259 13.4 6.99998ZM7.79998 3.79998C7.79998 4.01215 7.71569 4.21563 7.56566 4.36566C7.41563 4.51569 7.21215 4.59998 6.99998 4.59998C6.7878 4.59998 6.58432 4.51569 6.43429 4.36566C6.28426 4.21563 6.19998 4.01215 6.19998 3.79998C6.19998 3.5878 6.28426 3.38432 6.43429 3.23429C6.58432 3.08426 6.7878 2.99998 6.99998 2.99998C7.21215 2.99998 7.41563 3.08426 7.56566 3.23429C7.71569 3.38432 7.79998 3.5878 7.79998 3.79998ZM6.19998 6.19998C5.9878 6.19998 5.78432 6.28426 5.63429 6.43429C5.48426 6.58432 5.39998 6.7878 5.39998 6.99998C5.39998 7.21215 5.48426 7.41563 5.63429 7.56566C5.78432 7.71569 5.9878 7.79998 6.19998 7.79998V10.2C6.19998 10.4121 6.28426 10.6156 6.43429 10.7657C6.58432 10.9157 6.7878 11 6.99998 11H7.79998C8.01215 11 8.21563 10.9157 8.36566 10.7657C8.51569 10.6156 8.59998 10.4121 8.59998 10.2C8.59998 9.9878 8.51569 9.78432 8.36566 9.63429C8.21563 9.48426 8.01215 9.39997 7.79998 9.39997V6.99998C7.79998 6.7878 7.71569 6.58432 7.56566 6.43429C7.41563 6.28426 7.21215 6.19998 6.99998 6.19998H6.19998Z" fill="#3066CF"/>
</svg>
