<svg width="18" height="16" viewBox="0 0 18 16" fill="none" xmlns="http://www.w3.org/2000/svg">
<path fill-rule="evenodd" clip-rule="evenodd" d="M13.9149 4.72614L17.4406 4.68047C17.4039 1.8497 15.6863 0.217983 12.8125 0.255205L5.2872 0.352674C2.41337 0.389896 0.738635 2.06555 0.774832 4.86022L0.853867 10.9623C0.890064 13.7569 2.60764 15.3886 5.48147 15.3514L13.0068 15.2539C15.8806 15.2167 17.5553 13.5411 17.5191 10.7464L17.5158 10.4864L13.9901 10.5321C12.3539 10.5533 11.0107 9.27723 10.99 7.68193C10.9693 6.08664 12.2791 4.77622 13.9153 4.75502L13.9149 4.72614ZM13.931 5.96821L16.8345 5.9306C17.1781 5.92615 17.4602 6.19413 17.4645 6.52914L17.4918 8.63777C17.4921 8.97121 17.2194 9.24409 16.8775 9.25242L14.0407 9.28917C13.2125 9.31076 12.481 8.76719 12.2829 7.98298C12.1825 7.49588 12.3081 6.99028 12.6259 6.60167C12.9438 6.21306 13.4215 5.98119 13.931 5.96821ZM14.0857 8.18353L14.3597 8.17998C14.7115 8.17543 14.9931 7.89368 14.9886 7.5507C14.9842 7.20771 14.6954 6.93335 14.3436 6.93791L14.0696 6.94146C13.9013 6.94171 13.7401 7.00762 13.6219 7.1245C13.5037 7.24137 13.4384 7.39947 13.4405 7.56352C13.445 7.9077 13.7326 8.18415 14.0857 8.18353ZM4.72312 4.84519L9.42643 4.78427C9.77822 4.77972 10.0598 4.49797 10.0554 4.15499C10.0509 3.812 9.76213 3.53764 9.41034 3.5422L4.70703 3.60312C4.35811 3.60761 4.07765 3.88497 4.078 4.22518C4.08243 4.56936 4.37007 4.84581 4.72312 4.84519Z" fill="#229269"/>
</svg>
