<svg width="20" height="20" viewBox="0 0 20 20" fill="none" xmlns="http://www.w3.org/2000/svg">
<path fill-rule="evenodd" clip-rule="evenodd" d="M9.99998 19.1668C4.93998 19.1668 0.833313 15.0693 0.833313 10.0001C0.833313 4.94009 4.93998 0.83342 9.99998 0.83342C15.0691 0.83342 19.1666 4.94009 19.1666 10.0001C19.1666 15.0693 15.0691 19.1668 9.99998 19.1668ZM12.9241 13.4009C13.0341 13.4651 13.1533 13.5018 13.2816 13.5018C13.5108 13.5018 13.74 13.3826 13.8683 13.1626C14.0608 12.8418 13.96 12.4201 13.63 12.2184L10.3666 10.2751V6.04009C10.3666 5.65509 10.055 5.35259 9.67915 5.35259C9.30331 5.35259 8.99165 5.65509 8.99165 6.04009V10.6693C8.99165 10.9076 9.11998 11.1276 9.33081 11.2559L12.9241 13.4009Z" fill="#229269"/>
</svg>
