<svg width="87" height="87" viewBox="0 0 87 87" fill="none" xmlns="http://www.w3.org/2000/svg">
<circle cx="43.9859" cy="43.9848" r="43.0112" fill="#FFF9E7"/>
<circle cx="43.9862" cy="43.9847" r="34.156" fill="#F7B100"/>
<g clip-path="url(#clip0_1101_46122)">
<path d="M45.2499 28.222L58.9142 51.8899C59.0401 52.108 59.1064 52.3553 59.1064 52.6071C59.1064 52.8589 59.0401 53.1062 58.9142 53.3243C58.7883 53.5424 58.6073 53.7234 58.3892 53.8493C58.1712 53.9752 57.9238 54.0415 57.672 54.0415H30.3434C30.0917 54.0415 29.8443 53.9752 29.6262 53.8493C29.4082 53.7234 29.2271 53.5424 29.1012 53.3243C28.9753 53.1062 28.9091 52.8589 28.9091 52.6071C28.9091 52.3553 28.9753 52.108 29.1012 51.8899L42.7655 28.222C42.8914 28.0039 43.0725 27.8229 43.2905 27.697C43.5086 27.5711 43.7559 27.5048 44.0077 27.5048C44.2595 27.5048 44.5069 27.5711 44.7249 27.697C44.943 27.8229 45.124 28.0039 45.2499 28.222ZM32.8279 51.1727H55.1876L44.0077 31.808L32.8279 51.1727ZM42.5733 46.8694H45.4421V49.7383H42.5733V46.8694ZM42.5733 36.8285H45.4421V44.0006H42.5733V36.8285Z" fill="#2E3238"/>
</g>
<defs>
<clipPath id="clip0_1101_46122">
<rect width="34.4261" height="34.4261" fill="white" transform="translate(26.7946 23.9187)"/>
</clipPath>
</defs>
</svg>
