<svg width="20" height="14" viewBox="0 0 20 14" fill="none" xmlns="http://www.w3.org/2000/svg">
<path d="M10.2413 10.8314C11.308 10.8314 12.2133 10.4595 12.957 9.71577C13.7008 8.97203 14.0727 8.06677 14.0727 6.99999C14.0727 5.93321 13.7008 5.02795 12.957 4.28421C12.2133 3.54047 11.308 3.1686 10.2413 3.1686C9.17449 3.1686 8.26922 3.54047 7.52548 4.28421C6.78174 5.02795 6.40987 5.93321 6.40987 6.99999C6.40987 8.06677 6.78174 8.97203 7.52548 9.71577C8.26922 10.4595 9.17449 10.8314 10.2413 10.8314ZM10.2413 9.5242C9.53509 9.5242 8.93784 9.28004 8.44952 8.79173C7.96121 8.30341 7.71705 7.70617 7.71705 6.99999C7.71705 6.29381 7.96121 5.69656 8.44952 5.20825C8.93784 4.71993 9.53509 4.47578 10.2413 4.47578C10.9474 4.47578 11.5447 4.71993 12.033 5.20825C12.5213 5.69656 12.7655 6.29381 12.7655 6.99999C12.7655 7.70617 12.5213 8.30341 12.033 8.79173C11.5447 9.28004 10.9474 9.5242 10.2413 9.5242ZM10.2413 13.7613C8.16781 13.7613 6.2784 13.1978 4.57306 12.0709C2.86771 10.9441 1.54926 9.45659 0.617709 7.6085C0.572633 7.53338 0.538827 7.44323 0.516289 7.33805C0.493752 7.23288 0.482483 7.12019 0.482483 6.99999C0.482483 6.87979 0.493752 6.7671 0.516289 6.66192C0.538827 6.55675 0.572633 6.4666 0.617709 6.39147C1.54926 4.54339 2.86771 3.05591 4.57306 1.92903C6.2784 0.802148 8.16781 0.238708 10.2413 0.238708C12.3147 0.238708 14.2041 0.802148 15.9095 1.92903C17.6148 3.05591 18.9333 4.54339 19.8648 6.39147C19.9099 6.4666 19.9437 6.55675 19.9662 6.66192C19.9888 6.7671 20 6.87979 20 6.99999C20 7.12019 19.9888 7.23288 19.9662 7.33805C19.9437 7.44323 19.9099 7.53338 19.8648 7.6085C18.9333 9.45659 17.6148 10.9441 15.9095 12.0709C14.2041 13.1978 12.3147 13.7613 10.2413 13.7613ZM10.2413 12.409C12.0593 12.409 13.7308 11.9169 15.2559 10.9328C16.7809 9.94866 17.9416 8.63772 18.7379 6.99999C17.9416 5.36226 16.7809 4.05132 15.2559 3.06718C13.7308 2.08304 12.0593 1.59096 10.2413 1.59096C8.42323 1.59096 6.75169 2.08304 5.22665 3.06718C3.7016 4.05132 2.5334 5.36226 1.72205 6.99999C2.5334 8.63772 3.7016 9.94866 5.22665 10.9328C6.75169 11.9169 8.42323 12.409 10.2413 12.409Z" fill="#3066CF"/>
</svg>
