<svg width="26" height="17" viewBox="0 0 26 17" fill="none" xmlns="http://www.w3.org/2000/svg">
<path fill-rule="evenodd" clip-rule="evenodd" d="M0.992942 8.80549L1.09654 16.8041L2.43237 16.7868L3.76819 16.7695L3.66459 8.77088L3.56099 0.772281L2.22517 0.789583L0.889343 0.806885L0.992942 8.80549ZM5.02385 8.75328L5.12745 16.7519L5.78365 16.7434L6.43984 16.7349L6.33624 8.73628L6.23265 0.737677L5.57645 0.746177L4.92026 0.754676L5.02385 8.75328ZM7.69551 8.71868L7.7991 16.7173L9.13493 16.7L10.4708 16.6827L10.3672 8.68407L10.2636 0.685468L8.92773 0.70277L7.59191 0.720072L7.69551 8.71868ZM11.6452 0.726052C11.6334 0.758393 11.6753 4.35254 11.7384 8.71309L11.8531 16.6414L13.1774 16.6367L14.5017 16.6319L14.3981 8.63261L14.2945 0.633259L12.9806 0.650277C11.9727 0.663332 11.6618 0.680973 11.6452 0.726052ZM15.7105 8.61486L15.8141 16.6135L16.4468 16.6053L17.0796 16.5971L16.976 8.59847L16.8724 0.59987L16.2396 0.608066L15.6069 0.616261L15.7105 8.61486ZM18.3821 8.58026L18.4857 16.5789L19.1185 16.5707L19.7512 16.5625L19.6476 8.56387L19.544 0.565266L18.9113 0.573462L18.2785 0.581658L18.3821 8.58026ZM21.0538 8.54566L21.1574 16.5443L23.1259 16.5188L25.0945 16.4933L24.9909 8.49466L24.8873 0.496059L22.9187 0.521556L20.9502 0.547054L21.0538 8.54566Z" fill="#4B5563"/>
</svg>
