<svg width="18" height="20" viewBox="0 0 18 20" fill="none" xmlns="http://www.w3.org/2000/svg">
<path d="M12.6667 0.833336H5.33333C2.80333 0.833336 0.75 2.88667 0.75 5.41667V14.5833C0.75 17.1133 2.80333 19.1667 5.33333 19.1667H12.6667C15.1967 19.1667 17.25 17.1133 17.25 14.5833V5.41667C17.25 2.88667 15.1967 0.833336 12.6667 0.833336ZM6.12167 16.0775C5.9475 16.2517 5.71833 16.3433 5.48 16.3433C5.2325 16.3433 5.00333 16.2517 4.82917 16.0775C4.655 15.9033 4.55417 15.6742 4.55417 15.4267C4.55417 15.1883 4.655 14.95 4.82917 14.7758C4.91167 14.6933 5.0125 14.6292 5.1225 14.5833C5.35167 14.4917 5.59917 14.4917 5.82833 14.5833C5.88333 14.6017 5.93833 14.6292 5.98417 14.6658C6.03917 14.6933 6.085 14.7392 6.12167 14.7758C6.29583 14.95 6.39667 15.1883 6.39667 15.4267C6.39667 15.6742 6.29583 15.9033 6.12167 16.0775ZM4.55417 11.76C4.55417 11.6408 4.58167 11.5217 4.6275 11.4117C4.67333 11.2925 4.7375 11.2008 4.82917 11.1092C5.04 10.8983 5.36083 10.7975 5.65417 10.8617C5.70917 10.8708 5.77333 10.8892 5.82833 10.9167C5.88333 10.935 5.93833 10.9625 5.98417 10.9992C6.03917 11.0267 6.085 11.0725 6.12167 11.1092C6.20417 11.2008 6.2775 11.2925 6.32333 11.4117C6.36917 11.5217 6.3875 11.6408 6.3875 11.76C6.3875 12.0075 6.29583 12.2367 6.12167 12.4108C5.9475 12.585 5.71833 12.6767 5.48 12.6767C5.35167 12.6767 5.2325 12.6492 5.1225 12.6033C5.0125 12.5575 4.91167 12.4933 4.82917 12.4108C4.655 12.2367 4.55417 12.0075 4.55417 11.76ZM9.78833 16.0775C9.70583 16.16 9.605 16.2242 9.495 16.27C9.385 16.3158 9.26583 16.3433 9.1375 16.3433C8.89917 16.3433 8.67 16.2517 8.49583 16.0775C8.32167 15.9033 8.22083 15.6742 8.22083 15.4267C8.22083 15.3625 8.23 15.3075 8.23917 15.2433C8.2575 15.1883 8.27583 15.1333 8.29417 15.0783C8.32167 15.0233 8.34917 14.9683 8.37667 14.9133C8.41333 14.8675 8.45 14.8217 8.49583 14.7758C8.57833 14.6933 8.67917 14.6292 8.78917 14.5833C9.12833 14.4458 9.53167 14.5192 9.78833 14.7758C9.9625 14.95 10.0542 15.1883 10.0542 15.4267C10.0542 15.6742 9.9625 15.9033 9.78833 16.0775ZM9.78833 12.4108C9.61417 12.585 9.385 12.6767 9.1375 12.6767C8.89917 12.6767 8.67 12.585 8.49583 12.4108C8.32167 12.2367 8.22083 12.0075 8.22083 11.76C8.22083 11.5217 8.32167 11.2833 8.49583 11.1092C8.835 10.77 9.44917 10.77 9.78833 11.1092C9.87083 11.2008 9.94417 11.2925 9.99 11.4117C10.0358 11.5217 10.0542 11.6408 10.0542 11.76C10.0542 12.0075 9.9625 12.2367 9.78833 12.4108ZM6.25 8.58834C5.30583 8.58834 4.52667 7.81834 4.52667 6.865V5.94834C4.52667 5.00417 5.29667 4.225 6.25 4.225H11.75C12.6942 4.225 13.4733 4.995 13.4733 5.94834V6.865C13.4733 7.80917 12.7033 8.58834 11.75 8.58834H6.25ZM13.455 16.0775C13.2808 16.2517 13.0517 16.3433 12.8042 16.3433C12.685 16.3433 12.5658 16.3158 12.4558 16.27C12.3458 16.2242 12.245 16.16 12.1625 16.0775C11.9883 15.9033 11.8967 15.6742 11.8967 15.4267C11.8967 15.1883 11.9883 14.95 12.1625 14.7758C12.41 14.5192 12.8225 14.4458 13.1617 14.5833C13.2717 14.6292 13.3725 14.6933 13.455 14.7758C13.6292 14.95 13.7208 15.1883 13.7208 15.4267C13.7208 15.6742 13.6292 15.9033 13.455 16.0775ZM13.6567 12.1083C13.6108 12.2183 13.5467 12.3192 13.455 12.4108C13.2808 12.585 13.0517 12.6767 12.8042 12.6767C12.5658 12.6767 12.3367 12.585 12.1625 12.4108C11.9883 12.2367 11.8875 12.0075 11.8875 11.76C11.8875 11.5217 11.9883 11.2833 12.1625 11.1092C12.5017 10.77 13.1158 10.77 13.455 11.1092C13.6292 11.2833 13.73 11.5217 13.73 11.76C13.73 11.8792 13.7025 11.9983 13.6567 12.1083Z" fill="#229269"/>
</svg>
