<svg width="22" height="22" viewBox="0 0 22 22" fill="none" xmlns="http://www.w3.org/2000/svg">
<path fill-rule="evenodd" clip-rule="evenodd" d="M18.5773 6.80674L18.0216 5.84237C17.5514 5.02637 16.5095 4.74487 15.6924 5.21308V5.21308C15.3034 5.44221 14.8393 5.50722 14.4024 5.39377C13.9654 5.28031 13.5916 4.99772 13.3632 4.60831C13.2163 4.36079 13.1374 4.07886 13.1344 3.79105V3.79105C13.1476 3.3296 12.9735 2.88244 12.6518 2.55143C12.33 2.22042 11.8879 2.03375 11.4263 2.03394H10.3067C9.85439 2.03393 9.42077 2.21415 9.10174 2.53471C8.78271 2.85527 8.60458 3.28975 8.60675 3.74201V3.74201C8.59335 4.67576 7.83253 5.42566 6.89868 5.42557C6.61086 5.42258 6.32894 5.34364 6.08142 5.19673V5.19673C5.2643 4.72852 4.22238 5.01002 3.75222 5.82602L3.15562 6.80674C2.68604 7.62172 2.96371 8.66298 3.77674 9.13593V9.13593C4.30523 9.44105 4.63079 10.0049 4.63079 10.6152C4.63079 11.2254 4.30523 11.7893 3.77674 12.0944V12.0944C2.96474 12.5642 2.68677 13.6029 3.15562 14.4154V14.4154L3.71953 15.388C3.93982 15.7855 4.30942 16.0788 4.74656 16.203C5.18369 16.3272 5.65231 16.2722 6.04873 16.05V16.05C6.43842 15.8226 6.9028 15.7603 7.33865 15.8769C7.7745 15.9935 8.1457 16.2794 8.36975 16.6711C8.51665 16.9186 8.59559 17.2005 8.59858 17.4883V17.4883C8.59858 18.4317 9.36331 19.1964 10.3067 19.1964H11.4263C12.3665 19.1964 13.1299 18.4367 13.1344 17.4965V17.4965C13.1322 17.0428 13.3114 16.6071 13.6322 16.2863C13.953 15.9655 14.3888 15.7862 14.8424 15.7884C15.1296 15.7961 15.4103 15.8747 15.6597 16.0173V16.0173C16.4747 16.4868 17.516 16.2092 17.9889 15.3961V15.3961L18.5773 14.4154C18.8051 14.0245 18.8676 13.5589 18.751 13.1217C18.6344 12.6845 18.3484 12.3119 17.9562 12.0862V12.0862C17.564 11.8606 17.278 11.488 17.1614 11.0508C17.0448 10.6136 17.1073 10.148 17.3351 9.75705C17.4832 9.49845 17.6976 9.28404 17.9562 9.13593V9.13593C18.7644 8.66324 19.0414 7.62806 18.5773 6.81491V6.81491V6.80674Z" stroke="#229269" stroke-width="1.3" stroke-linecap="round" stroke-linejoin="round"/>
<ellipse cx="10.8706" cy="10.6152" rx="2.35371" ry="2.35371" stroke="#229269" stroke-width="1.3" stroke-linecap="round" stroke-linejoin="round"/>
</svg>
