<svg width="14" height="14" viewBox="0 0 14 14" fill="none" xmlns="http://www.w3.org/2000/svg">
<path fill-rule="evenodd" clip-rule="evenodd" d="M13.4001 6.99961C13.4001 8.69699 12.7258 10.3249 11.5256 11.5251C10.3253 12.7253 8.69748 13.3996 7.0001 13.3996C5.30271 13.3996 3.67485 12.7253 2.47461 11.5251C1.27438 10.3249 0.600098 8.69699 0.600098 6.99961C0.600098 5.30222 1.27438 3.67436 2.47461 2.47413C3.67485 1.27389 5.30271 0.599609 7.0001 0.599609C8.69748 0.599609 10.3253 1.27389 11.5256 2.47413C12.7258 3.67436 13.4001 5.30222 13.4001 6.99961ZM7.8001 3.79961C7.8001 4.01178 7.71581 4.21527 7.56578 4.36529C7.41575 4.51532 7.21227 4.59961 7.0001 4.59961C6.78792 4.59961 6.58444 4.51532 6.43441 4.36529C6.28438 4.21527 6.2001 4.01178 6.2001 3.79961C6.2001 3.58744 6.28438 3.38395 6.43441 3.23392C6.58444 3.08389 6.78792 2.99961 7.0001 2.99961C7.21227 2.99961 7.41575 3.08389 7.56578 3.23392C7.71581 3.38395 7.8001 3.58744 7.8001 3.79961ZM6.2001 6.19961C5.98792 6.19961 5.78444 6.28389 5.63441 6.43392C5.48438 6.58395 5.4001 6.78744 5.4001 6.99961C5.4001 7.21178 5.48438 7.41527 5.63441 7.56529C5.78444 7.71532 5.98792 7.79961 6.2001 7.79961V10.1996C6.2001 10.4118 6.28438 10.6153 6.43441 10.7653C6.58444 10.9153 6.78792 10.9996 7.0001 10.9996H7.8001C8.01227 10.9996 8.21575 10.9153 8.36578 10.7653C8.51581 10.6153 8.6001 10.4118 8.6001 10.1996C8.6001 9.98744 8.51581 9.78395 8.36578 9.63392C8.21575 9.48389 8.01227 9.39961 7.8001 9.39961V6.99961C7.8001 6.78744 7.71581 6.58395 7.56578 6.43392C7.41575 6.28389 7.21227 6.19961 7.0001 6.19961H6.2001Z" fill="#229269"/>
</svg>
