<svg width="18" height="19" viewBox="0 0 18 19" fill="none" xmlns="http://www.w3.org/2000/svg">
<path d="M5.4375 5.75H12.5625V4.25C12.5625 2.75 12 2 10.3125 2H7.6875C6 2 5.4375 2.75 5.4375 4.25V5.75Z" stroke="white" stroke-width="1.5" stroke-miterlimit="10" stroke-linecap="round" stroke-linejoin="round"/>
<path d="M12 11.75V14.75C12 16.25 11.25 17 9.75 17H8.25C6.75 17 6 16.25 6 14.75V11.75H12Z" stroke="white" stroke-width="1.5" stroke-miterlimit="10" stroke-linecap="round" stroke-linejoin="round"/>
<path d="M15.75 8V11.75C15.75 13.25 15 14 13.5 14H12V11.75H6V14H4.5C3 14 2.25 13.25 2.25 11.75V8C2.25 6.5 3 5.75 4.5 5.75H13.5C15 5.75 15.75 6.5 15.75 8Z" stroke="white" stroke-width="1.5" stroke-miterlimit="10" stroke-linecap="round" stroke-linejoin="round"/>
<path d="M12.75 11.75H11.8425H5.25" stroke="white" stroke-width="1.5" stroke-miterlimit="10" stroke-linecap="round" stroke-linejoin="round"/>
<path d="M5.25 8.75H7.5" stroke="white" stroke-width="1.5" stroke-miterlimit="10" stroke-linecap="round" stroke-linejoin="round"/>
</svg>
