<svg width="18" height="16" viewBox="0 0 18 16" fill="none" xmlns="http://www.w3.org/2000/svg">
<path d="M15.7498 5.68385C14.2415 5.68385 13.6248 4.61718 14.3748 3.30885C14.8082 2.55052 14.5498 1.58385 13.7915 1.15052L12.3498 0.325517C11.6915 -0.06615 10.8415 0.167183 10.4498 0.825517L10.3582 0.98385C9.60817 2.29218 8.37484 2.29218 7.6165 0.98385L7.52484 0.825517C7.14984 0.167183 6.29984 -0.06615 5.6415 0.325517L4.19984 1.15052C3.4415 1.58385 3.18317 2.55885 3.6165 3.31718C4.37484 4.61718 3.75817 5.68385 2.24984 5.68385C1.38317 5.68385 0.666504 6.39218 0.666504 7.26718V8.73385C0.666504 9.60052 1.37484 10.3172 2.24984 10.3172C3.75817 10.3172 4.37484 11.3838 3.6165 12.6922C3.18317 13.4505 3.4415 14.4172 4.19984 14.8505L5.6415 15.6755C6.29984 16.0672 7.14984 15.8339 7.5415 15.1755L7.63317 15.0172C8.38317 13.7089 9.6165 13.7089 10.3748 15.0172L10.4665 15.1755C10.8582 15.8339 11.7082 16.0672 12.3665 15.6755L13.8082 14.8505C14.5665 14.4172 14.8248 13.4422 14.3915 12.6922C13.6332 11.3838 14.2498 10.3172 15.7582 10.3172C16.6248 10.3172 17.3415 9.60885 17.3415 8.73385V7.26718C17.3332 6.40052 16.6248 5.68385 15.7498 5.68385ZM8.99984 10.7088C7.50817 10.7088 6.2915 9.49218 6.2915 8.00052C6.2915 6.50885 7.50817 5.29218 8.99984 5.29218C10.4915 5.29218 11.7082 6.50885 11.7082 8.00052C11.7082 9.49218 10.4915 10.7088 8.99984 10.7088Z" fill="#11142D"/>
</svg>
